<?xml version="1.0" encoding="utf-8"?>
<!-- Generator: Adobe Illustrator 20.1.0, SVG Export Plug-In . SVG Version: 6.00 Build 0)  -->
<svg version="1.1" id="Layer_1" xmlns="http://www.w3.org/2000/svg" xmlns:xlink="http://www.w3.org/1999/xlink" x="0px" y="0px"
	 viewBox="0 0 63.8 60.4" style="enable-background:new 0 0 63.8 60.4;" xml:space="preserve">
<style type="text/css">
	.st0{fill:#FFC965;}
	.st1{fill:#A2AE24;}
	.st2{fill:#613E17;}
	.st3{fill:#C90909;}
	.st4{fill:#FFFFFF;}
</style>
<path class="st0" d="M2,36.4c0,14.3,2.3,17.7,29.9,17.7V10.6C4,10.6,2,22.1,2,36.4z"/>
<path class="st0" d="M31.8,54.1c27.7,0,30-3.5,30-17.7s-2-25.8-30-25.8c0,0,0,0-0.1,0"/>
<g>
	<path class="st1" d="M22,29.2c0,0-2.3-2.2-10,0c-8.7,2.5-9.7,0-9.7,0s-0.4,2.1-0.4,7.6s1,7.4,1,7.4s1.5-1.8,9.1,0
		c4.8,1.1,5.2,1.5,10,0c6.4-2,9.9,0,9.9,0v-15C25.9,31.4,22,29.2,22,29.2z"/>
	<path class="st1" d="M61.7,29.5c0,0-4.8-2.1-11.7-0.3c-8.6,2.2-9,0-9,0s-3.5-2.1-9.1,0v15c0,0,2.9,1.9,10.1,0c6-1.6,6.7-0.4,7.9,0
		c4.2,2.2,11,0,11,0s1-2.4,1-7.5S61.7,29.5,61.7,29.5z"/>
</g>
<path class="st2" d="M4,35.3c-2.2,0-4,1.6-4,3.7v2.5c0,2,1.8,3.7,4,3.7h27.9v-9.8H4z"/>
<path class="st2" d="M59.8,35.3H31.9v9.8h27.9c2.2,0,4-1.6,4-3.7V39C63.8,37,62,35.3,59.8,35.3z"/>
<path class="st3" d="M3.8,32.6c-2.1,0-1.9,0.5-1.9,1.2v0.8c0,0.7-0.3,1.2,1.9,1.2h29.1v-3.2L3.8,32.6L3.8,32.6z"/>
<path class="st3" d="M60.3,32.6H32.9v3.2h27.4c2,0,1.6-0.5,1.6-1.2v-0.8C61.9,33.2,62.3,32.6,60.3,32.6z"/>
<path class="st4" d="M13.6,15.4c-0.3,0-0.1,0.7,0,0.9c0.1,0.2,0.2,0.4,0.4,0.3C14.2,16.4,13.9,15.4,13.6,15.4z"/>
<path class="st4" d="M18.4,18.7c-0.2-0.1-0.4,0.6-0.3,0.9c0,0.2,0.1,0.5,0.3,0.4C18.6,19.9,18.6,18.8,18.4,18.7z"/>
<path class="st4" d="M22.5,14.5c-0.3,0-0.1,0.7,0,0.9c0.1,0.2,0.2,0.4,0.4,0.3C23.1,15.5,22.8,14.6,22.5,14.5z"/>
<path class="st4" d="M28,20.5c-0.3,0-0.1,0.7,0,0.9c0.1,0.2,0.2,0.4,0.4,0.3C28.6,21.5,28.3,20.5,28,20.5z"/>
<path class="st4" d="M34.4,18.1c-0.2,0.1,0.3,0.7,0.5,0.8c0.2,0.1,0.4,0.2,0.5,0C35.5,18.5,34.7,17.9,34.4,18.1z"/>
<path class="st4" d="M38.4,14c-0.2-0.1-0.4,0.6-0.4,0.8c0,0.2,0,0.5,0.2,0.4C38.5,15.2,38.7,14.2,38.4,14z"/>
<path class="st4" d="M42.4,22.1c-0.2-0.2-0.6,0.4-0.6,0.7c0,0.2-0.1,0.5,0.1,0.5C42.2,23.2,42.6,22.3,42.4,22.1z"/>
<path class="st4" d="M30.3,25.8c-0.3,0-0.1,0.7,0,0.9c0.1,0.2,0.2,0.4,0.4,0.3C30.9,26.8,30.6,25.8,30.3,25.8z"/>
<path class="st4" d="M16.3,24.6c-0.3,0-0.1,0.7,0,0.9c0.1,0.2,0.2,0.4,0.4,0.3C17,25.6,16.7,24.6,16.3,24.6z"/>
<path class="st4" d="M8,24.4c-0.2-0.1-0.5,0.5-0.5,0.8c0,0.2,0,0.5,0.2,0.4C8.1,25.5,8.3,24.6,8,24.4z"/>
<path class="st4" d="M49.8,19.4c-0.3,0-0.1,0.7,0,0.9c0.1,0.2,0.2,0.4,0.4,0.3C50.4,20.4,50.1,19.4,49.8,19.4z"/>
<path class="st4" d="M54.6,24.4c-0.3,0-0.1,0.7,0,0.9c0.1,0.2,0.2,0.4,0.4,0.3C55.2,25.3,54.9,24.4,54.6,24.4z"/>
</svg>
