<svg id="Layer_1" data-name="Layer 1" xmlns="http://www.w3.org/2000/svg" viewBox="0 0 150 140"><defs><style>.cls-1{fill:#00a651;}.cls-2{fill:#8dc63f;}.cls-3{fill:#ed1c24;}.cls-4{fill:#83152b;}</style></defs><title>tomato</title><g id="_Group_" data-name="&lt;Group&gt;"><path class="cls-1" d="M81.49,34.14h0L81.24,34,81,33.32l-.26-.83c-.09-.33-.16-.71-.26-1.13,0-.21-.11-.43-.14-.67s-.06-.49-.1-.75-.07-.53-.1-.81,0-.57,0-.88c0-.15,0-.3,0-.46s0-.16,0-.23l0-.24a9.13,9.13,0,0,1,.08-1,18,18,0,0,1,.41-2.08c.37-1.44.89-3,1.4-4.62a49.76,49.76,0,0,0,1.36-5.26,35.81,35.81,0,0,0,.68-5.77c0-.5,0-1,0-1.49s0-1-.07-1.49-.08-1-.14-1.5l-.09-.74,0-.18V3.1s0-.06,0-.09a1.49,1.49,0,0,1,0-.36A1.77,1.77,0,0,1,84.11,2a2.51,2.51,0,0,1,.52-.5A4.35,4.35,0,0,1,86,.89,10,10,0,0,1,88.89.57a16,16,0,0,1,2.9.37,12,12,0,0,1,1.38.39l.33.12h0l.32.14c.22.1.43.21.63.32l.44.28a4.31,4.31,0,0,1,.54.45l.12.12a2.79,2.79,0,0,1,.66,1.18,2.21,2.21,0,0,1,.06.33c0,.11,0,.23,0,.34s0,.45,0,.66,0,.44,0,.66,0,.43-.07.65c-.1.85-.25,1.68-.39,2.47-.08.4-.15.79-.23,1.17l-.12.57-.12.56L95,12.95c-.18.86-.34,1.66-.48,2.41-.21,1.2-.37,2.25-.45,3.12s-.12,1.56-.12,2c0,.19,0,.34,0,.45l-.65.38c-1.4.82-2.8,1.63-4.17,2.51-.69.44-1.36.89-2,1.38-.33.24-.64.5-1,.75s-.63.52-.91.82a13.61,13.61,0,0,0-1.62,1.84,11.06,11.06,0,0,0-.65,1c-.1.18-.2.35-.29.54l-.24.57a4.51,4.51,0,0,0-.21.57c-.06.2-.13.39-.18.59l-.13.6c0,.1,0,.2-.06.3l0,.31-.08.61c0,.17,0,.34,0,.51Z"/><path class="cls-2" d="M90.5,36.75l.22-.47.45-.94.39-1,.19-.48.15-.5L92,33l.56-.21.58-.17h0c2.09-.42,4.19-.77,6.27-1.22.52-.1,1-.23,1.56-.34s1-.24,1.55-.37,1-.27,1.54-.43l.77-.23.75-.26.75-.27.74-.3.74-.3.72-.35.73-.35.7-.39.7-.39c.23-.14.45-.3.68-.44a14.45,14.45,0,0,0,1.31-.94l.63-.51.31-.26.29-.28.55-.53L113.65,26q-.51.91-1,1.81l-.54.89-.06.09-.5.79-.57.86-.6.85-.62.83-.65.81-.68.79-.71.76-.74.73-.54.48-.62,0c-.53,0-1,0-1.58,0l-3.16,0-1.58,0c-.53,0-1,0-1.58,0l-.79,0h-.4l-.4,0a14.15,14.15,0,0,0-1.57.2l-.78.15-.39.07-.38.11-1.52.43h0L90.9,37l-.35.17-.3.11,0,0Z"/><path class="cls-2" d="M89.3,24.17c1.37-.85,2.8-1.61,4.21-2.42.7-.4,1.41-.8,2.11-1.22s1.39-.85,2.07-1.29,1.35-.91,2-1.41c.33-.25.64-.51,1-.77s.62-.54.93-.8l.89-.85.85-.89.27-.33,0,0c-.32.61-.68,1.19-1,1.77-.74,1.16-1.53,2.3-2.34,3.41-1.63,2.23-3.34,4.41-5.08,6.56l-1.31,1.61-.65.81-.32.41-.16.21,0,.06,0,.1s0,.09,0,.13l-.11,1c0,.17,0,.35-.06.52l-.1.5-.21,1-.29,1-.15.5-.19.48-.37,1-.43.94-.21.47-.24.46-.48.92-.51.9c-.3.54-.63,1.07-.95,1.61l-.44-.08c-.3-.06-.61-.1-.91-.13L86,40.28c-.61,0-1.22-.1-1.82-.12-.44,0-.89,0-1.33,0l-.35-1a5.53,5.53,0,0,1-.17-.58L82.18,38A9.5,9.5,0,0,1,82,36.78c0-.2-.06-.4-.09-.6l0-.6,0-.61c0-.19,0-.4,0-.6s0-.4,0-.61l.08-.59,0-.3c0-.1,0-.19.06-.29L82.2,32c0-.19.12-.38.19-.57a4.44,4.44,0,0,1,.21-.56l.25-.55c.09-.18.19-.35.29-.53a11.59,11.59,0,0,1,.65-1A13,13,0,0,1,85.4,27c.28-.28.61-.52.91-.79s.63-.49,1-.72C87.94,25,88.61,24.59,89.3,24.17Z"/><path class="cls-2" d="M97.09,35.91h.79c.52,0,1.05,0,1.58.05L101,36l3.16.13c.53,0,1.06.06,1.58.05s1.06,0,1.6,0,1.06-.07,1.59-.14,1.06-.17,1.58-.29a14.27,14.27,0,0,0,1.55-.46l.38-.14.37-.16c.25-.1.49-.22.73-.34s.49-.26.72-.41l-.35.39-1,1c-.34.34-.68.69-1,1s-.7.67-1.06,1-.72.65-1.09.95-.74.62-1.13.9-.77.58-1.17.85l-.6.4c-.2.14-.4.26-.61.38l-.63.36-.31.18-.32.16c-.44.21-.86.45-1.31.61a13.46,13.46,0,0,1-1.35.52l-.69.22c-.23.08-.47.12-.7.18l-.7.17c-.24.06-.48.08-.72.12l-.72.1c-.24,0-.48,0-.72,0l-.72,0h-.2l-.95-.54c-.49-.25-1-.5-1.52-.75s-1.06-.47-1.62-.67-1.12-.42-1.7-.57l-.87-.26-.89-.21c-.44-.12-.88-.2-1.33-.28.32-.53.66-1,1-1.59l.53-.9.45-.83c.11-.05.22-.12.33-.16l.37-.14.75-.21h0l1.53-.38.38-.1.39-.06.78-.13a14.44,14.44,0,0,1,1.56-.16l.39,0Z"/><path class="cls-2" d="M61,.83l.32.06a2.34,2.34,0,0,1,.3.1h0l1.13.6.57.3c.19.1.37.22.55.33L65,2.88l1,.74a12.17,12.17,0,0,1,1,.79l.49.41c.16.14.31.29.46.44a17.32,17.32,0,0,1,1.71,1.87c.25.34.51.68.74,1s.45.72.64,1.09.38.75.55,1.14l.24.59c.08.19.16.39.23.59A21.14,21.14,0,0,1,72.78,14l.14.62.11.62c.08.42.14.84.2,1.26.23,1.68.37,3.39.58,5.09.11.85.22,1.7.4,2.54l.13.63.16.63c.09.42.24.83.37,1.24s.32.8.47,1.2.38.78.59,1.15A12.85,12.85,0,0,0,77.45,31a10.28,10.28,0,0,0,.9.92,11.91,11.91,0,0,0,1,.83l.52.38a5.69,5.69,0,0,0,.53.37l.81.5h0l.27.17h0l.23.17h0a5.59,5.59,0,0,0,0,.61l0,.61,0,.61c0,.2.06.4.1.6A9.65,9.65,0,0,0,82.1,38l.16.59a4.56,4.56,0,0,0,.17.58l.36,1c-.74,0-1.46,0-2.17.1s-1.13.1-1.68.19l-1.16.19-.33-.26c-.26-.22-.68-.51-1.21-.88s-1.19-.79-1.92-1.3A16.9,16.9,0,0,1,72,36.32a10.53,10.53,0,0,1-2-2.81,12.59,12.59,0,0,1-1.11-3.7l-.14-1c0-.35,0-.7,0-1.06,0-.18,0-.36,0-.53s0-.35,0-.53c0-.36,0-.72,0-1.08,0-1.45,0-2.92,0-4.39s-.07-2.94-.17-4.39A40.19,40.19,0,0,0,68,12.6c-.06-.34-.15-.67-.22-1s-.15-.66-.25-1l-.28-.95c-.1-.31-.22-.61-.33-.91l-.17-.44c-.05-.15-.13-.28-.19-.43l-.38-.83c-.13-.27-.29-.52-.43-.77l-.21-.37a2.86,2.86,0,0,0-.22-.36,15.28,15.28,0,0,0-1.88-2.35c-.33-.31-.62-.61-.92-.86l-.84-.65c-.13-.1-.25-.2-.36-.27l-.34-.21L60.41.88,60.13.71l0,0a.84.84,0,0,0,.39.07h.14Z"/><path class="cls-3" d="M108,28.49l-.32.17L107,29l-.73.33-.74.29-.74.28c-.25.1-.5.17-.75.26-.5.17-1,.34-1.52.48s-1,.3-1.54.43-1,.26-1.55.37c-2.08.45-4.19.79-6.28,1.2h0l-.61.11-.48.13.15-.47.22-1,.11-.51c0-.17,0-.34.06-.52l.12-1s0-.08,0-.13h0l0-.05.15-.2.33-.4.66-.8,1.33-1.59q1-1.23,2-2.47l.06,0h0l.18.08.11,0,.41.16.16.06.17.06.58.19.43.13.47.13.75.2.26.07c.35.09.71.21,1.07.32l1.1.35.55.19.53.21.51.22.49.24c.16.07.31.17.46.25s.3.17.43.26l.39.26c.13.08.23.19.34.26l.34.23.29.23.25.21.19.2Z"/><path class="cls-3" d="M74.29,16.4l.56.16.65.21a5.85,5.85,0,0,0,.72.23c.25.06.52.11.78.19l.8.21.79.26a6.27,6.27,0,0,1,.75.3c.24.11.48.2.68.32l.59.33.26.14.23.16.37.25.1.07-.07.24c-.5,1.64-1,3.21-1.28,4.69a18,18,0,0,0-.33,2.16c0,.35,0,.68,0,1,0,.08,0,.16,0,.24s0,.16,0,.25,0,.32,0,.47l.06.89c0,.28.08.56.12.82s.08.51.12.76.11.46.16.68c.11.43.2.81.3,1.13l.29.81.21.59-.74-.48a5.65,5.65,0,0,1-.52-.37l-.51-.39a11.93,11.93,0,0,1-1-.85,10.92,10.92,0,0,1-.88-.92,12.81,12.81,0,0,1-1.45-2.08c-.2-.37-.38-.76-.56-1.14s-.32-.78-.44-1.19-.26-.81-.34-1.22l-.14-.62c0-.21-.08-.42-.12-.63-.15-.83-.25-1.68-.33-2.53-.17-1.7-.25-3.4-.46-5.11,0,0,0-.06,0-.08H74A1.9,1.9,0,0,1,74.29,16.4Z"/><path class="cls-3" d="M51.69,25.07,54.95,25c.59,0,1.21,0,1.83,0h.94l.95,0a27.87,27.87,0,0,1,3.69.36c.58.09,1.14.22,1.66.35s1,.29,1.45.45.83.33,1.17.49l.48.22.41.2c.25.12.42.24.55.3l.07,0c0,.13,0,.27,0,.4l0,1.06.13,1.06c0,.17,0,.35.07.52l.11.51.11.5.06.25.08.24.33,1c.14.3.29.59.43.88a10.68,10.68,0,0,0,2.25,2.83,18.07,18.07,0,0,0,2.43,1.81c.76.49,1.43.89,2,1.23s1,.63,1.23.83l.26.19-.3.05-1.49.35c-.48.11-.93.27-1.37.4l-.64.2-.6.23-1.11.42c-.67.31-1.27.57-1.75.81l-1.46.8,1.49-.75c.48-.23,1.08-.47,1.76-.76L73.29,42l.6-.21.64-.18c.44-.12.89-.26,1.37-.37l1.49-.31L79,40.69c.54-.08,1.1-.1,1.67-.16a30.77,30.77,0,0,1,3.5,0c.6,0,1.19.09,1.79.15l.9.13c.3,0,.6.08.89.14.59.12,1.19.22,1.77.38l.87.22.86.26c.57.16,1.12.39,1.67.58s1.06.45,1.59.67l1.49.75c.47.28.94.53,1.38.81s.86.55,1.25.84.77.57,1.12.85l1,.85c.3.28.57.56.84.81s.26.25.38.37l.33.37c.22.23.41.45.6.63.35.39.64.7.85.89s.33.3.33.3l.14-.1s-.07-.14-.22-.39a10,10,0,0,0-.7-1c-.17-.21-.37-.43-.58-.68l-.34-.37-.39-.38c-.27-.26-.55-.54-.87-.82l-1-.85c-.36-.28-.75-.57-1.15-.86s-.85-.56-1.28-.85l-.38-.23h.12l.73,0c.24,0,.48,0,.73,0l.72-.09c.24,0,.48-.05.72-.1l.71-.15c.24-.06.48-.09.71-.17l.7-.21a14.19,14.19,0,0,0,1.37-.5c.46-.17.89-.4,1.33-.6l.33-.16.32-.18.64-.36c.21-.12.42-.24.63-.37l.41-.26.85-.07,1.08,0c.41,0,.89,0,1.4.08s1.06.12,1.63.24,1.18.26,1.8.41,1.25.37,1.88.62l.48.17.47.19c.31.14.63.25.94.4l.93.43.91.46c.3.15.59.31.88.47s.58.31.85.47c.56.31,1.09.64,1.59.94s1,.61,1.42.86l2.14,1.28c.52.31.82.47.82.47l.08-.12s-.26-.23-.74-.6-1.16-.89-2-1.48c-.42-.3-.91-.59-1.41-.9s-1.05-.62-1.62-.93l-.87-.46c-.3-.15-.59-.32-.9-.46l-.93-.44-1-.41c-.32-.14-.64-.26-1-.38l-.48-.18-.49-.16c-.64-.23-1.29-.4-1.92-.57s-1.25-.29-1.84-.37-1.15-.14-1.67-.19-1,0-1.41,0l-1.09.06-.55.06c.39-.25.75-.53,1.13-.79s.77-.59,1.15-.89.74-.63,1.12-.94.72-.65,1.08-1,.7-.67,1.05-1l1-1,1-1.06,1-1.06,0,0-.33-.32-.59.5c-.21.16-.41.32-.62.46a11.27,11.27,0,0,1-1.33.78c-.23.11-.46.23-.7.32l-.36.15-.37.13a13.61,13.61,0,0,1-1.49.42c-.25.06-.51.1-.76.15l-.77.12c-.52.06-1,.12-1.55.16l-.72,0,.42-.35.77-.72.73-.75.7-.78.68-.8.65-.83.62-.84.6-.86.54-.81.14.06.6.3c.33.16.74.35,1.21.61l1.65.87c.61.35,1.3.73,2.05,1.16s1.57.92,2.42,1.48a72,72,0,0,1,12.28,9.82c1.13,1.12,2.24,2.34,3.37,3.63s2.22,2.69,3.28,4.18,2.1,3.08,3.1,4.75a59.48,59.48,0,0,1,2.75,5.34A58.14,58.14,0,0,1,147.41,67,55.85,55.85,0,0,1,149,73.48a54.18,54.18,0,0,1,.71,6.85q0,.88,0,1.76c0,.58,0,1.19,0,1.78s0,1.2-.06,1.8-.11,1.2-.17,1.81-.1,1.21-.18,1.82L149,91.12c0,.3-.1.61-.15.92s0,.31-.08.46l-.1.46-.41,1.83c-.07.3-.13.61-.21.92l-.26.91-.53,1.83c-.19.61-.42,1.2-.63,1.81l-.32.9-.16.45-.19.45c-.52,1.18-1,2.39-1.6,3.55-.3.58-.57,1.18-.89,1.76l-1,1.72c-.17.28-.32.58-.5.86l-.54.84c-.36.56-.72,1.13-1.09,1.68-.79,1.08-1.55,2.2-2.42,3.24a59.26,59.26,0,0,1-5.54,6.06l-1.52,1.42-1.58,1.36-.61.51.49-.6.52-.63.54-.72,1.21-1.64c.22-.29.43-.59.64-.91l.65-1c.44-.66.9-1.33,1.31-2l1.28-2.16,1.17-2.22c.4-.73.71-1.48,1-2.2l.47-1.06.22-.52.19-.51.72-1.91c.1-.3.22-.58.3-.85l.24-.78L140,104l.32-1.11-.06,0-.42,1.07-.48,1.23-.29.76c-.1.26-.23.54-.36.83l-.79,1.86-.21.5-.25.5-.5,1c-.34.7-.66,1.45-1.06,2.16l-1.15,2.21-1.25,2.15c-.4.72-.85,1.39-1.27,2l-.63,1c-.2.32-.4.63-.61.92l-1.17,1.65-.52.73-.5.64-.81,1-.6.77h0c-.48.38-1,.77-1.46,1.12a70.1,70.1,0,0,1-14.89,8.43,56,56,0,0,1-8.3,2.68c-.72.14-1.43.31-2.15.43s-1.45.25-2.18.3A23.14,23.14,0,0,1,94,139l-1.09-.11c-.37,0-.73-.11-1.09-.16l-.55-.08-.54-.11-1.08-.23A40.55,40.55,0,0,1,85.43,137a43,43,0,0,1-4.1-1.74l-1-.5-.39-.21.45-.26.88-.5.54-.31.58-.39,1.3-.88L84,132l.34-.27.7-.55c.47-.38,1-.75,1.44-1.19l1.43-1.29c.44-.47.89-.93,1.32-1.4a17.88,17.88,0,0,0,1.18-1.44l.55-.7c.18-.23.35-.45.5-.69l.88-1.29.39-.57.32-.54.51-.88.44-.76-.07,0-.5.73-.57.83-.35.52-.42.55-.94,1.23c-.16.22-.35.43-.54.65l-.58.66c-.39.45-.79.92-1.24,1.36s-.86.92-1.29,1.39l-1.37,1.32a17.65,17.65,0,0,1-1.39,1.21l-.68.56-.33.27-.34.24-1.25.9-.56.4-.53.32-.86.52-.6.37h0l0,0-.12-.07-.18-.09a.29.29,0,0,0-.21,0l-.14,0-.29.06-.55.12-1.1.22a28.51,28.51,0,0,1-8.89.46,54.34,54.34,0,0,1-8.77-1.94,100,100,0,0,1-16.64-6.8q-4-2-7.79-4.42t-7.34-5a87.36,87.36,0,0,1-6.78-5.65A77.72,77.72,0,0,1,14.7,105,61.6,61.6,0,0,1,5.33,90.76,50.81,50.81,0,0,1,.84,75c0-.13,0-.28,0-.45,0-.35.08-.76.14-1.24s.13-1,.23-1.6l.14-.92.18-1c.12-.67.29-1.37.44-2.09s.35-1.46.58-2.21S3,64,3.26,63.24,3.75,61.74,4,61s.57-1.43.86-2.11c.15-.34.32-.66.47-1s.3-.63.47-.93l.47-.87c.15-.28.32-.54.47-.79l.44-.73L7.66,54,8,53.4c.12-.17.24-.32.34-.46L9,52.07,9,52l-.69.85c-.11.14-.23.28-.36.45l-.4.55-.46.62c-.16.22-.31.46-.47.71s-.34.51-.51.78l-.51.86c-.18.29-.34.6-.51.92s-.35.64-.51,1c-.32.68-.66,1.37-1,2.1S3,62.32,2.75,63.07s-.49,1.52-.68,2.28-.36,1.52-.52,2.25S1.26,69,1.17,69.72l-.15,1c0,.32-.08.63-.12.92-.08.59-.14,1.14-.18,1.62,0,.09,0,.17,0,.25,0-.2,0-.4,0-.61,0-.67-.09-1.34-.11-2s0-1.34,0-2,0-1.33,0-2c0-.33,0-.66,0-1s0-.66.07-1c.05-.65.09-1.31.15-2S1,61.68,1,61c0-.32.07-.64.13-1l.17-1c.12-.63.22-1.27.34-1.89S2,56,2.12,55.36c.08-.31.14-.62.23-.92l.26-.91c.18-.61.34-1.21.53-1.81.42-1.18.78-2.37,1.26-3.5.23-.57.45-1.15.7-1.7l.77-1.66c.24-.55.54-1.08.82-1.61s.55-1.07.85-1.58c.62-1,1.19-2.05,1.87-3a53.55,53.55,0,0,1,4.17-5.48,55.25,55.25,0,0,1,9.61-8.6,56.22,56.22,0,0,1,10.19-5.63,60.26,60.26,0,0,1,9.74-3.2,66.72,66.72,0,0,1,8.6-1.38,63.41,63.41,0,0,1,12.21.1c.7.08,1.32.13,1.85.22l1.34.21L68,15q.08.9.14,1.81c.07,1.44.09,2.91.08,4.37s0,2.94-.07,4.39l0,1.08s0,.09,0,.13l-.37-.23-.41-.24-.49-.25c-.36-.16-.78-.33-1.24-.48s-1-.29-1.5-.42S63,25,62.43,24.88a28.37,28.37,0,0,0-3.75-.25h-1l-.95,0c-.63,0-1.25,0-1.84.08L51.69,25l-1.3.09-1,.05-.87,0h0l.87,0,1,0Z"/><path class="cls-4" d="M127.63,125.85l1-.81-.35.43-.73.89-.25-.2.1-.14h0Z"/><path class="cls-4" d="M131.42,121.45l-1.21,1.64-.54.72-.52.63-.49.6-1,.81-.2.16.6-.77.81-1,.5-.64.52-.73,1.17-1.65c.21-.29.41-.6.61-.92l.63-1c.42-.66.88-1.33,1.27-2l1.25-2.15,1.15-2.21c.4-.72.72-1.46,1.06-2.16l.5-1,.25-.5.21-.5.79-1.86c.12-.29.25-.56.36-.83l.29-.76.48-1.23.42-1.07.06,0L140,104l-.38,1.27-.24.78c-.09.27-.2.55-.3.85l-.72,1.91-.19.51-.22.52-.47,1.06c-.32.72-.64,1.47-1,2.2l-1.17,2.22L134,117.52c-.41.72-.87,1.39-1.31,2l-.65,1C131.85,120.85,131.64,121.16,131.42,121.45Z"/><path class="cls-4" d="M114.92,33.56l1-1.09.33.32-.61.53c-.21.16-.42.34-.64.49s-.44.3-.66.43Z"/><path class="cls-4" d="M114.47,24.48l1.17-2.16.46.3-1,1.24a6.06,6.06,0,0,1-.56.58Z"/><path class="cls-4" d="M118,31.94c-.75-.43-1.44-.81-2.05-1.16l-1.65-.87c-.48-.25-.89-.44-1.21-.61l-.6-.3.6.29c.33.16.74.35,1.22.6l1.66.86L118,31.91c.74.45,1.57.91,2.43,1.47,1.74,1.08,3.68,2.42,5.77,4a71,71,0,0,1,6.57,5.75c1.14,1.12,2.26,2.33,3.39,3.62s2.24,2.68,3.31,4.18,2.12,3.08,3.13,4.75a59.54,59.54,0,0,1,2.78,5.34A57.67,57.67,0,0,1,147.64,67a55.56,55.56,0,0,1,1.59,6.45,54.19,54.19,0,0,1,.73,6.89q0,.88,0,1.77c0,.6,0,1.19,0,1.79s0,1.2-.06,1.8-.11,1.21-.16,1.82-.1,1.22-.18,1.83l-.29,1.83c-.05.31-.1.61-.15.92,0,.15,0,.31-.08.46l-.1.46-.41,1.84c-.07.31-.13.62-.21.92l-.26.92-.53,1.84c-.19.61-.42,1.21-.63,1.82l-.33.91-.16.46-.19.45c-.52,1.19-1,2.41-1.6,3.58-.3.59-.58,1.19-.89,1.77l-1,1.73c-.17.29-.32.58-.5.86l-.54.84c-.37.56-.72,1.14-1.1,1.69-.8,1.09-1.55,2.22-2.43,3.26a59.6,59.6,0,0,1-5.56,6.1l-1.52,1.43-1.59,1.37c-.52.47-1.09.89-1.64,1.33l-.28.22h0l.73-.89.35-.43.61-.51,1.58-1.36,1.52-1.42a59.26,59.26,0,0,0,5.54-6.06c.87-1,1.63-2.16,2.42-3.24.38-.55.73-1.12,1.09-1.68l.54-.84c.18-.28.33-.57.5-.86l1-1.72c.31-.58.59-1.17.89-1.76.61-1.15,1.08-2.37,1.6-3.55l.19-.45.16-.45.32-.9c.21-.61.45-1.2.63-1.81l.53-1.83.26-.91c.08-.3.14-.61.21-.92l.41-1.83.1-.46c0-.15.05-.3.08-.46s.1-.61.15-.92l.29-1.82c.08-.61.12-1.21.18-1.82s.12-1.21.17-1.81,0-1.2.06-1.8,0-1.2,0-1.78,0-1.18,0-1.76a54.18,54.18,0,0,0-.71-6.85A55.85,55.85,0,0,0,147.41,67a58.14,58.14,0,0,0-2.23-5.91,59.48,59.48,0,0,0-2.75-5.34c-1-1.67-2-3.27-3.1-4.75s-2.18-2.87-3.28-4.18-2.24-2.51-3.37-3.63a72,72,0,0,0-12.28-9.82C119.55,32.86,118.73,32.39,118,31.94Z"/><path class="cls-4" d="M112.33,28.94l.14.06Z"/><path class="cls-4" d="M116.1,22.63c-.33.6-.67,1.19-1,1.78s-.7,1.21-1.06,1.81-.72,1.19-1.1,1.79l-.61.94-.26-.13-.05,0,.06-.09.54-.89q.53-.9,1-1.81l.82-1.51,0,0a6.06,6.06,0,0,0,.56-.58Z"/><path class="cls-4" d="M108.34,28.51l-.17.12-.13-.14.21-.11Z"/><path class="cls-4" d="M110.73,40.46c.52.05,1.08.09,1.67.19s1.2.23,1.84.37,1.28.34,1.92.57l.49.16.48.18c.32.13.65.24,1,.38l1,.41.93.44c.31.14.6.31.9.46l.87.46c.57.31,1.11.63,1.62.93s1,.6,1.41.9c.86.58,1.54,1.1,2,1.48s.74.6.74.6l-.08.12s-.3-.16-.82-.47l-2.14-1.28c-.45-.26-.91-.56-1.42-.86s-1-.63-1.59-.94q-.41-.25-.85-.47c-.29-.15-.58-.32-.88-.47l-.91-.46-.93-.43c-.31-.15-.63-.26-.94-.4l-.47-.19L116,42c-.63-.24-1.26-.43-1.88-.62s-1.22-.32-1.8-.41-1.12-.17-1.63-.24-1-.06-1.4-.08l-1.08,0-.85.07.21-.13.07,0h0l.55-.06,1.09-.06C109.75,40.43,110.21,40.43,110.73,40.46Z"/><path class="cls-4" d="M107.67,40.54l-.07,0-.21.13h-.09v-.14Z"/><path class="cls-4" d="M111.19,30.61l-.62.84-.65.83-.68.8-.7.78-.73.75-.77.72-.42.35h-.23l.54-.48.74-.73.71-.76.68-.79.65-.81.62-.83.6-.85.57-.86.5-.79.05,0,.26.13-.54.81Z"/><path class="cls-4" d="M106.63,35.68l-.38.32-.08-.1.24-.21Z"/><path class="cls-4" d="M104.86,12.54l0,.06h0l-.41-.22h0l0,0,1-1.23Z"/><path class="cls-4" d="M104.83,12.6l-.74,1-.52.61a13.06,13.06,0,0,0,.84-1.82Z"/><path class="cls-4" d="M102,25c.37.07.75.16,1.13.25s.75.19,1.12.31l.55.17.53.19c.18.06.34.15.5.22a3.68,3.68,0,0,1,.47.24,5.39,5.39,0,0,1,.81.54,4,4,0,0,1,.32.3l.24.31.22.26c.06.08.11.17.16.24l.21.32-.21.11-.23-.25-.19-.2-.25-.21-.29-.23-.34-.23c-.11-.08-.21-.19-.34-.26l-.39-.26c-.13-.1-.28-.17-.43-.26s-.29-.18-.46-.25l-.49-.24-.51-.22-.53-.21-.55-.19-1.1-.35c-.36-.12-.72-.23-1.07-.32l-.26-.07.26.06C101.25,24.89,101.62,25,102,25Z"/><path class="cls-4" d="M99.88,24.54l.75.2Z"/><path class="cls-4" d="M99,24.28l.43.13L99,24.28l-.58-.19Z"/><path class="cls-4" d="M97.65,23.81l.41.16-.41-.16-.11,0Z"/><path class="cls-4" d="M97.36,23.69l.18.08Z"/><path class="cls-4" d="M97.3,23.66l.06,0-.06,0Z"/><path class="cls-4" d="M98.08,43.9l-.73,0h-.12l-.08,0h.2l.72,0c.24,0,.48,0,.72,0l.72-.1c.24,0,.48-.06.72-.12l.7-.17c.23-.06.47-.1.7-.18l.69-.22a13.46,13.46,0,0,0,1.35-.52c.45-.17.87-.41,1.31-.61l.32-.16.31-.18.63-.36c.21-.12.41-.25.61-.38l.6-.4c.41-.26.78-.57,1.17-.85s.75-.6,1.13-.9.73-.63,1.09-.95.7-.66,1.06-1,.68-.68,1-1l1-1,.35-.39c.23-.14.45-.28.66-.43s.43-.33.64-.49l.61-.53-1,1.06-1,1.06-1,1c-.35.34-.7.68-1.05,1s-.72.66-1.08,1-.74.64-1.12.94-.76.61-1.15.89-.74.54-1.13.79h0l-.38,0v.14h.09L107,41c-.2.13-.41.26-.63.37l-.64.36-.32.18-.33.16c-.44.2-.87.43-1.33.6a14.19,14.19,0,0,1-1.37.5l-.7.21c-.23.08-.47.11-.71.17l-.71.15c-.24.05-.48.07-.72.1l-.72.09C98.57,43.89,98.33,43.89,98.08,43.9Z"/><path class="cls-4" d="M97.16,43.88l.08,0h-.61v0Z"/><path class="cls-4" d="M96.22,3.95a2.21,2.21,0,0,1,.06.33A2.21,2.21,0,0,0,96.22,3.95Z"/><path class="cls-4" d="M95.78,9.05c-.07.4-.15.79-.23,1.17C95.63,9.84,95.7,9.45,95.78,9.05Z"/><path class="cls-1" d="M95.43,10.79l-.12.56c-.12.55-.23,1.08-.34,1.6l.34-1.6Z"/><path class="cls-4" d="M94.9,2.2a3.86,3.86,0,0,1,.54.45A4.31,4.31,0,0,0,94.9,2.2Z"/><path class="cls-4" d="M99.43,31.43c-2.08.45-4.18.8-6.27,1.22h0l-.58.17L92,33l.05-.17.48-.13.61-.11h0c2.09-.41,4.19-.75,6.28-1.2.52-.11,1-.23,1.55-.37s1-.28,1.54-.43,1-.32,1.52-.48c.25-.09.5-.16.75-.26l.74-.28.74-.29L107,29l.72-.33.32-.17.13.14.17-.12-.09-.13.17-.09.7-.37.67-.41.67-.42c.23-.14.43-.31.65-.46a14.28,14.28,0,0,0,1.25-1l.6-.51.3-.25.28-.28.56-.56a7.44,7.44,0,0,0,.54-.57l1-1.2.46.3,0,0-.46-.3-1.17,2.16-.55.53-.29.28-.31.26-.63.51a14.45,14.45,0,0,1-1.31.94c-.23.15-.44.31-.68.44l-.7.39-.7.39-.73.35-.72.35-.74.3-.74.3-.75.27-.75.26-.77.23c-.51.15-1,.3-1.54.43s-1,.26-1.55.37S99.95,31.33,99.43,31.43Z"/><polygon class="cls-4" points="92.06 32.87 92.01 33.03 92 33.04 91.95 32.89 92.06 32.87"/><path class="cls-4" d="M90.91,37l-.37.14c-.12,0-.22.11-.33.16l0-.06.3-.11L90.9,37l.74-.28h0l1.52-.43.38-.11.39-.07.78-.15a14.15,14.15,0,0,1,1.57-.2l.4,0h.4l.79,0c.54,0,1.06,0,1.58,0l1.58,0,3.16,0c.53,0,1.05,0,1.58,0l.62,0-.24.21.08.1.38-.32.72,0c.52,0,1-.09,1.55-.16l.77-.12c.26-.05.51-.09.76-.15a13.61,13.61,0,0,0,1.49-.42l.37-.13.36-.15c.24-.09.47-.21.7-.32a11.27,11.27,0,0,0,1.33-.78c.21-.15.41-.31.62-.46l.59-.5.33.32,0,0-.33-.32-1,1.09-.62.68c-.23.15-.47.28-.72.41s-.48.25-.73.34l-.37.16-.38.14a14.27,14.27,0,0,1-1.55.46q-.78.18-1.58.29c-.53.06-1.06.12-1.59.14s-1.07,0-1.6,0-1.06,0-1.58-.05L101,36,99.45,36c-.52,0-1.06-.06-1.58-.05H96.7l-.39,0a14.44,14.44,0,0,0-1.56.16l-.78.13-.39.06-.38.1-1.53.38h0Z"/><path class="cls-4" d="M90.24,37.24l0,.06h0l0,0Z"/><path class="cls-4" d="M91.17,35.34l-.45.94-.22.47-.25.46,0,0-.07,0,0,0h0l-.45.83-.53.9c-.31.54-.64,1.06-1,1.59h0c.32-.54.65-1.06.95-1.61l.51-.9.48-.92.24-.46.21-.47.43-.94.37-1,.19-.48.15-.5.29-1,.21-1,.1-.5c0-.17,0-.34.06-.52l.11-1s0-.09,0-.13l0-.1,0-.06.16-.21.32-.41.65-.81L95.08,26c1.74-2.15,3.46-4.32,5.08-6.56.81-1.12,1.61-2.25,2.34-3.41.37-.58.72-1.17,1-1.77l0,0,.52-.61.74-1h0a13.4,13.4,0,0,1-.9,1.84c-.34.61-.71,1.2-1.09,1.78-.76,1.16-1.57,2.29-2.4,3.4-1,1.37-2.08,2.71-3.15,4h0q-1,1.24-2,2.47l-1.33,1.59-.66.8-.33.4-.15.2,0,.05h0s0,.08,0,.13l-.12,1c0,.17,0,.34-.06.52l-.11.51-.22,1-.15.47-.11,0L92,33h0l-.11.36-.15.5-.19.48Z"/><path class="cls-4" d="M88.27,40.6l-.12.19h0l.11-.18Z"/><path class="cls-4" d="M82.83,40.14l.05.15h0l-.06-.16Z"/><path class="cls-4" d="M81.91,19.22l-.12.14-.21-.15.06-.21Z"/><path class="cls-4" d="M82.2,31.36a4.51,4.51,0,0,1,.21-.57l.24-.57c.09-.19.19-.36.29-.54a11.06,11.06,0,0,1,.65-1,13.61,13.61,0,0,1,1.62-1.84c.28-.29.61-.54.91-.82s.63-.52,1-.75c.65-.49,1.33-.94,2-1.38,1.37-.88,2.77-1.69,4.17-2.51l.65-.38,1.43-.86c.69-.42,1.37-.86,2-1.31s1.32-.92,2-1.4c.32-.24.63-.5.95-.75s.61-.52.92-.78l.88-.83.83-.86.79-.91.7-.9h0a13.06,13.06,0,0,1-.84,1.82l-.27.33-.85.89-.89.85c-.31.27-.61.54-.93.8s-.63.52-1,.77c-.65.5-1.32,1-2,1.41s-1.37.88-2.07,1.29-1.4.82-2.11,1.22c-1.41.8-2.83,1.57-4.21,2.42-.69.42-1.37.86-2,1.32-.33.23-.64.48-1,.72s-.63.51-.91.79a13,13,0,0,0-1.62,1.77,11.59,11.59,0,0,0-.65,1c-.1.18-.2.35-.29.53l-.25.55a4.44,4.44,0,0,0-.21.56c-.06.19-.14.38-.19.57l-.14.59c0,.1,0,.19-.06.29l0,.3-.08.59c0,.2,0,.41,0,.61s0,.41,0,.6l0,.61,0,.6c0,.2.06.4.09.6A9.5,9.5,0,0,0,82.18,38l.14.59a5.53,5.53,0,0,0,.17.58l.35,1h0l-.36-1a4.56,4.56,0,0,1-.17-.58L82.1,38a9.65,9.65,0,0,1-.24-1.19c0-.2-.07-.4-.1-.6l0-.61,0-.61a5.59,5.59,0,0,1,0-.61h0l0,0,0-.07-.08-.05c0-.17,0-.34,0-.51l.08-.61,0-.31c0-.1,0-.2.06-.3l.13-.6C82.07,31.75,82.14,31.56,82.2,31.36Z"/><path class="cls-4" d="M81.78,34.32l0,.07,0,0s0-.06,0-.09Z"/><path class="cls-4" d="M81.49,34.14l.2.13s0,.06,0,.09l-.23-.17h0L81.2,34l0,0v0l.25.16Z"/><path class="cls-4" d="M81.25,34l0,0h0l0-.08.08.05Z"/><path class="cls-4" d="M81.2,34h0Z"/><path class="cls-4" d="M79.62,134.42l.6-.37.86-.52.53-.32.56-.4,1.25-.9.34-.24.33-.27.68-.56a17.65,17.65,0,0,0,1.39-1.21l1.37-1.32c.43-.47.86-.94,1.29-1.39s.84-.91,1.24-1.36l.58-.66c.19-.21.37-.43.54-.65l.94-1.23.42-.55.35-.52.57-.83.5-.73.07,0-.44.76-.51.88-.32.54-.39.57-.88,1.29c-.15.23-.32.46-.5.69l-.55.7a17.88,17.88,0,0,1-1.18,1.44c-.43.47-.88.93-1.32,1.4L86.49,130c-.46.44-1,.81-1.44,1.19l-.7.55L84,132l-.35.24-1.3.88-.58.39-.54.31-.88.5-.45.26-.1-.05Z"/><path class="cls-4" d="M79.85,27.54c0-.08,0-.16,0-.24,0-.32,0-.65,0-1a18,18,0,0,1,.33-2.16c.31-1.48.78-3,1.28-4.69l.07-.24.21.15.12-.14L81.65,19c.46-1.51.94-3.09,1.31-4.75a33.76,33.76,0,0,0,.8-5.69c0-.49,0-1,0-1.47s0-1,0-1.49-.05-1-.1-1.48l-.07-.75,0-.19V3.1s0-.07,0-.1a1.7,1.7,0,0,1,.06-.38A2,2,0,0,1,84,1.9a2.63,2.63,0,0,1,.57-.52,4.42,4.42,0,0,1,1.39-.6,10.06,10.06,0,0,1,3-.25,17.09,17.09,0,0,1,2.9.4,12.55,12.55,0,0,1,1.38.4A12,12,0,0,0,91.79.94a16,16,0,0,0-2.9-.37A10,10,0,0,0,86,.89a4.35,4.35,0,0,0-1.33.61,2.51,2.51,0,0,0-.52.5,1.77,1.77,0,0,0-.28.64,1.49,1.49,0,0,0,0,.36s0,.07,0,.09v.09l0,.18.09.74c.06.5.09,1,.14,1.5s0,1,.07,1.49,0,1,0,1.49a35.81,35.81,0,0,1-.68,5.77A49.76,49.76,0,0,1,82,19.62c-.51,1.65-1,3.18-1.4,4.62a18,18,0,0,0-.41,2.08,9.13,9.13,0,0,0-.08,1l0,.24c0,.07,0,.15,0,.23s0,.31,0,.46c0,.3,0,.6,0,.88s.07.55.1.81.07.51.1.75.1.46.14.67c.1.42.17.81.26,1.13l.26.83.21.67-.08-.05-.21-.59-.29-.81c-.1-.32-.19-.71-.3-1.13-.05-.21-.12-.44-.16-.68s-.08-.49-.12-.76-.09-.53-.12-.82l-.06-.89c0-.15,0-.31,0-.47S79.85,27.64,79.85,27.54Z"/><path class="cls-4" d="M80.12,135.2l-.5-.26-.07,0,.07-.13.32-.18.39.21,1,.5a43,43,0,0,0,4.1,1.74,40.55,40.55,0,0,0,4.25,1.29l1.08.23.54.11.55.08c.36.05.73.13,1.09.16L94,139a23.14,23.14,0,0,0,4.4-.07c.73-.05,1.45-.19,2.18-.3s1.43-.29,2.15-.43a56,56,0,0,0,8.3-2.68A70.1,70.1,0,0,0,126,127.13c.5-.35,1-.74,1.46-1.12l-.1.14.25.2h0c-.46.36-.92.73-1.4,1.07a67.33,67.33,0,0,1-7.16,4.68,68.2,68.2,0,0,1-7.8,3.82,55.87,55.87,0,0,1-8.36,2.71c-.72.14-1.45.31-2.17.44s-1.46.25-2.2.3a23.41,23.41,0,0,1-4.46.08l-1.12-.11c-.37,0-.74-.11-1.11-.16l-.56-.09-.55-.11-1.1-.23a41,41,0,0,1-4.3-1.3,44,44,0,0,1-4.15-1.75Z"/><path class="cls-4" d="M79.93,134.59l-.32.18-.15-.26.15-.09h0l.21.11Z"/><path class="cls-4" d="M77.87,40.69l-.06.07-.16-.12.14,0Z"/><path class="cls-4" d="M77,17.19c-.26-.08-.53-.13-.78-.19a5.85,5.85,0,0,1-.72-.23l-.65-.21-.56-.16a1.9,1.9,0,0,0-.34-.06,1.87,1.87,0,0,0,.34,0,4,4,0,0,1,.58,0l.7,0a3.09,3.09,0,0,1,.77.09,7.33,7.33,0,0,1,.8.21l.81.28.79.34a7.3,7.3,0,0,1,.75.36c.24.13.48.23.68.37l.59.37.26.16.22.17.35.28,0,0-.06.21-.1-.07-.37-.25-.23-.16-.26-.14L80,18.28c-.21-.12-.45-.21-.68-.32a6.27,6.27,0,0,0-.75-.3l-.79-.26Z"/><path class="cls-4" d="M73.71,16.31l.14,0h-.14Z"/><path class="cls-4" d="M73.71,16.31h0Z"/><path class="cls-4" d="M73.29,42l-1.11.39c-.68.3-1.28.54-1.76.76l-1.49.75,1.46-.8c.48-.24,1.07-.5,1.75-.81l1.11-.42.6-.23.64-.2c.44-.13.89-.29,1.37-.4l1.49-.35.3-.05.16.12.06-.07-.08-.07,1.16-.19c.55-.09,1.11-.12,1.68-.19s1.43-.09,2.17-.1l.06.16h0l-.05-.15c.44,0,.88,0,1.33,0,.6,0,1.21.08,1.82.12l.91.11c.3,0,.61.07.91.13l.44.08-.11.18h0l.12-.19c.45.08.89.16,1.33.28l.89.21.87.26c.58.16,1.14.38,1.7.57s1.09.45,1.62.67,1,.5,1.52.75l.95.54h-.52v0h.61l.38.23c.44.29.88.56,1.28.85s.79.58,1.15.86l1,.85c.32.28.59.57.87.82l.39.38.34.37c.21.24.41.46.58.68a10,10,0,0,1,.7,1c.15.25.22.39.22.39l-.14.1s-.12-.1-.33-.3-.49-.5-.85-.89c-.19-.18-.38-.4-.6-.63l-.33-.37c-.12-.13-.25-.25-.38-.37s-.54-.54-.84-.81l-1-.85c-.36-.28-.74-.56-1.12-.85s-.82-.55-1.25-.84-.91-.53-1.38-.81L94.49,43c-.52-.22-1-.47-1.59-.67s-1.1-.42-1.67-.58l-.86-.26-.87-.22c-.58-.16-1.18-.26-1.77-.38-.3-.06-.59-.1-.89-.14l-.9-.13c-.6-.05-1.19-.12-1.79-.15a30.77,30.77,0,0,0-3.5,0c-.56.06-1.12.08-1.67.16l-1.59.24-1.49.31c-.48.1-.93.25-1.37.37l-.64.18Z"/><path class="cls-4" d="M68.53,27.07l-.24.37-.12-.07s0-.09,0-.14,0-.28,0-.41l.18.12Z"/><path class="cls-4" d="M68.2,15.05h0L68,15h0Z"/><path class="cls-4" d="M60.92.78l.36,0h0l.09,0a2.91,2.91,0,0,1,.31.12h0l1.15.57.57.28c.19.1.37.21.56.31l1.12.64,1.07.71c.36.23.7.5,1,.76l.51.4c.17.13.32.28.48.43A17.54,17.54,0,0,1,70,6.87c.26.34.54.67.79,1s.49.72.71,1.09.43.76.61,1.15.37.79.51,1.2.3.82.4,1.24.23.83.31,1.26l.13.64.11.64c.07.4.12.79.17,1.19h0s0,.06,0,.08c.21,1.71.3,3.41.46,5.11.09.85.18,1.69.33,2.53,0,.21.07.42.12.63l.14.62c.08.41.22.82.34,1.22s.29.79.44,1.19.36.77.56,1.14a12.81,12.81,0,0,0,1.45,2.08,10.92,10.92,0,0,0,.88.92,11.93,11.93,0,0,0,1,.85l.51.39a5.65,5.65,0,0,0,.52.37l.74.48,0,.08-.81-.5a5.69,5.69,0,0,1-.53-.37l-.52-.38a11.91,11.91,0,0,1-1-.83,10.28,10.28,0,0,1-.9-.92,12.85,12.85,0,0,1-1.52-2.08c-.21-.37-.4-.76-.59-1.15s-.34-.79-.47-1.2-.28-.82-.37-1.24l-.16-.63-.13-.63c-.17-.84-.29-1.7-.4-2.54-.21-1.7-.35-3.41-.58-5.09-.06-.42-.12-.84-.2-1.26l-.11-.62L72.78,14a21.14,21.14,0,0,0-.71-2.42c-.06-.2-.15-.39-.23-.59l-.24-.59c-.16-.39-.37-.76-.55-1.14s-.43-.72-.64-1.09-.49-.68-.74-1A17.32,17.32,0,0,0,68,5.24c-.15-.14-.3-.3-.46-.44L67,4.4a12.17,12.17,0,0,0-1-.79l-1-.74-1.09-.67c-.18-.11-.36-.23-.55-.33l-.57-.3L61.64,1h0a2.34,2.34,0,0,0-.3-.1L61,.83l-.31,0h.22Z"/><path class="cls-4" d="M60.95,1.22l.34.21c.12.08.23.18.36.27l.84.65c.29.26.59.55.92.86a15.28,15.28,0,0,1,1.88,2.35,2.86,2.86,0,0,1,.22.36l.21.37c.14.25.3.5.43.77l.38.83c.06.14.14.28.19.43l.17.44c.11.3.23.6.33.91l.28.95c.1.32.17.65.25,1s.16.66.22,1a40.19,40.19,0,0,1,.54,4.23c.1,1.45.15,2.92.17,4.39s0,2.94,0,4.39c0,.36,0,.72,0,1.08,0,.17,0,.37,0,.53s0,.35,0,.53c0,.35,0,.71,0,1.06l.14,1A12.59,12.59,0,0,0,70,33.51a10.53,10.53,0,0,0,2,2.81,16.9,16.9,0,0,0,2.32,1.87c.73.51,1.39.93,1.92,1.3s.94.66,1.21.88l.33.26-.14,0-.26-.19c-.27-.21-.69-.48-1.23-.83s-1.21-.74-2-1.23a18.07,18.07,0,0,1-2.43-1.81,10.68,10.68,0,0,1-2.25-2.83c-.14-.29-.29-.58-.43-.88l-.33-1-.08-.24-.06-.25-.11-.5-.11-.51c0-.17,0-.35-.07-.52l-.13-1.06,0-1.06c0-.13,0-.26,0-.4l.12.07.24-.37-.19-.13-.18-.12s0-.09,0-.13l0-1.08c0-1.45,0-2.92.07-4.39s0-2.93-.08-4.37Q68.11,15.93,68,15l.17,0h0L68,15c-.08-.81-.18-1.6-.31-2.38-.05-.34-.13-.67-.2-1s-.13-.66-.22-1L67,9.72c-.1-.31-.21-.61-.31-.91l-.16-.44c-.05-.15-.12-.28-.18-.43L66,7.12c-.12-.27-.28-.52-.41-.77L65.43,6a2.85,2.85,0,0,0-.21-.36,15.24,15.24,0,0,0-1.84-2.36c-.32-.31-.61-.61-.9-.87l-.83-.66c-.13-.1-.24-.2-.36-.28l-.34-.22L60.41.89,60.12.7h0l.28.17Z"/><path class="cls-4" d="M60,.61l.06,0Z"/><path class="cls-4" d="M61.28.81l-.36,0h-.22L60.37.72,60.05.63,59.74.51l-.3-.14L59.16.24l0-.09L59.25,0l.28.15a2.5,2.5,0,0,0,.28.15l.29.13.3.11c.2.06.41.1.63.15l.23.05h0Z"/><path class="cls-4" d="M60.7.34l.3.24.26.21L61,.73c-.21,0-.42-.09-.63-.15l-.3-.11L59.82.34a2.5,2.5,0,0,1-.28-.15L59.25,0l-.06.11L59.25,0l.34.08a2.68,2.68,0,0,0,.34.07l.39,0A.94.94,0,0,1,60.7.34Z"/><path class="cls-4" d="M60,.65,60,.61Zm.68.14h-.14a.84.84,0,0,1-.39-.07l0,0h0L59.79.56,59.46.42,59.15.27v0l.28.14.3.14.31.12.32.09Z"/><polygon class="cls-4" points="59.15 0.23 59.19 0.15 59.16 0.24 59.15 0.23"/><path class="cls-4" d="M58.68,24.64a28.37,28.37,0,0,1,3.75.25c.6.08,1.17.19,1.71.31s1,.27,1.5.42.88.32,1.24.48l.49.25.41.24.37.23c0,.14,0,.26,0,.41s0,.09,0,.14l-.07,0c-.13-.07-.31-.19-.55-.3l-.41-.2-.48-.22c-.34-.16-.74-.33-1.17-.49s-.93-.31-1.45-.45-1.08-.26-1.66-.35A27.87,27.87,0,0,0,58.67,25l-.95,0h-.94c-.62,0-1.24,0-1.83,0l-3.25.12-1.3.05-1,0-.87,0h0l.87,0,1-.05,1.3-.09,3.25-.22c.59,0,1.21-.05,1.84-.08l.95,0Z"/><path class="cls-4" d="M1.57,69.79l-.18,1-.14.92c-.1.59-.17,1.12-.23,1.6s-.11.9-.14,1.24c0,.17,0,.32,0,.45v-.06c0-.47-.1-.94-.14-1.41,0-.08,0-.17,0-.25,0-.48.1-1,.18-1.62,0-.3.08-.6.12-.92l.15-1c.09-.68.25-1.38.38-2.12s.32-1.49.52-2.25.42-1.53.68-2.28.54-1.5.86-2.22.63-1.42,1-2.1c.16-.34.34-.66.51-1s.33-.63.51-.92L6.1,56c.17-.28.35-.53.51-.78s.32-.49.47-.71l.46-.62.4-.55c.13-.17.25-.32.36-.45L9,52l.05,0-.66.87c-.1.14-.23.29-.34.46L7.66,54l-.43.64-.44.73c-.15.25-.32.51-.47.79L5.84,57c-.17.3-.32.61-.47.93s-.32.65-.47,1c-.29.68-.6,1.38-.86,2.11s-.52,1.48-.77,2.23-.47,1.5-.68,2.25S2.19,67,2,67.7,1.68,69.12,1.57,69.79Z"/><path class="cls-4" d="M.84,75l-.06.64-.24,0L.6,74.5c0-.28,0-.62.08-1,0,.47.1.94.14,1.41Z"/><path class="cls-4" d="M59.33,133.2a54.34,54.34,0,0,0,8.77,1.94,28.51,28.51,0,0,0,8.89-.46l1.1-.22.55-.12.29-.06.14,0a.29.29,0,0,1,.21,0l.18.09.12.07,0,0-.15.09.15.26-.07.13-.18-.1-.12-.06c-.05,0-.08,0-.07,0s0,0-.05,0l-.14,0-.26.06-.54.12-1.11.22a39.44,39.44,0,0,1-4.49.59c-.38,0-.76,0-1.14,0l-.57,0h-.57c-.37,0-.76,0-1.14-.06s-.76-.06-1.13-.12a54.52,54.52,0,0,1-8.85-1.94,100.28,100.28,0,0,1-16.74-6.81q-4-2.05-7.84-4.43t-7.38-5.05a82.43,82.43,0,0,1-13-12A62.25,62.25,0,0,1,4.85,91,51.53,51.53,0,0,1,.32,75c-.06-.68-.14-1.35-.19-2S0,71.58,0,70.91s0-1.34,0-2l.05-2c0-.33,0-.66,0-1l.08-1c.05-.66.09-1.32.16-2s.17-1.3.25-2c0-.32.07-.65.13-1l.17-1c.12-.64.22-1.28.35-1.91l.44-1.88c.08-.31.14-.63.23-.93l.26-.92c.18-.61.34-1.23.54-1.83C3.11,50.38,3.48,49.18,4,48c.24-.57.46-1.15.71-1.71l.78-1.67c.25-.56.55-1.09.83-1.63s.56-1.07.86-1.59c.63-1,1.21-2.07,1.89-3a54,54,0,0,1,4.22-5.5A55.53,55.53,0,0,1,23,24.3c.42-.3.86-.57,1.28-.85l1.28-.82,1.29-.76c.43-.24.85-.51,1.28-.73l1.29-.67c.43-.22.85-.45,1.28-.64L32,19.24l.63-.29.64-.26a60.57,60.57,0,0,1,9.8-3.14,68.14,68.14,0,0,1,8.63-1.32,63.26,63.26,0,0,1,12.22.19c.7.09,1.32.14,1.85.23l1.34.22L68,15h0l-.92-.14-1.34-.21c-.53-.09-1.15-.14-1.85-.22a63.41,63.41,0,0,0-12.21-.1,66.72,66.72,0,0,0-8.6,1.38,60.26,60.26,0,0,0-9.74,3.2,56.22,56.22,0,0,0-10.19,5.63,55.25,55.25,0,0,0-9.61,8.6A53.55,53.55,0,0,0,9.4,38.64c-.67,1-1.25,2-1.87,3-.3.51-.57,1.05-.85,1.58s-.57,1.06-.82,1.61L5.1,46.5c-.25.56-.46,1.14-.7,1.7-.49,1.13-.85,2.32-1.26,3.5-.19.6-.35,1.21-.53,1.81l-.26.91c-.09.3-.15.62-.23.92C2,56,1.84,56.6,1.69,57.22s-.23,1.26-.34,1.89l-.17,1c-.06.32-.08.64-.13,1Q.93,62,.81,63c-.06.65-.1,1.3-.15,2,0,.33,0,.65-.07,1s0,.66,0,1q0,1,0,2c0,.66,0,1.33,0,2s.07,1.34.11,2c0,.2,0,.4,0,.61,0,.38-.06.71-.08,1L.53,75.59l.24,0L.84,75a50.81,50.81,0,0,0,4.5,15.79A61.6,61.6,0,0,0,14.7,105a77.72,77.72,0,0,0,6.09,6.26A87.36,87.36,0,0,0,27.56,117q3.54,2.67,7.34,5t7.79,4.42A100,100,0,0,0,59.33,133.2Z"/></g></svg>